<mxfile host="app.diagrams.net" agent="Mozilla/5.0 (Windows NT 10.0; Win64; x64) AppleWebKit/537.36 (KHTML, like Gecko) Chrome/127.0.0.0 Safari/537.36 Edg/127.0.0.0" version="24.7.6">
  <diagram name="Page-1" id="QHoFcx9YMisTtljl7uNa">
    <mxGraphModel dx="1387" dy="728" grid="1" gridSize="10" guides="1" tooltips="1" connect="1" arrows="1" fold="1" page="1" pageScale="1" pageWidth="850" pageHeight="1100" math="0" shadow="0">
      <root>
        <mxCell id="0" />
        <mxCell id="1" parent="0" />
        <mxCell id="vbK594EZxYFQ8bA3J1nK-1" value="Actor" style="shape=umlActor;verticalLabelPosition=bottom;verticalAlign=top;html=1;outlineConnect=0;" vertex="1" parent="1">
          <mxGeometry x="40" y="400" width="110" height="230" as="geometry" />
        </mxCell>
        <mxCell id="vbK594EZxYFQ8bA3J1nK-3" value="Login" style="ellipse;whiteSpace=wrap;html=1;" vertex="1" parent="1">
          <mxGeometry x="300" y="220" width="140" height="70" as="geometry" />
        </mxCell>
        <mxCell id="vbK594EZxYFQ8bA3J1nK-4" value="Menambah Buku" style="ellipse;whiteSpace=wrap;html=1;" vertex="1" parent="1">
          <mxGeometry x="300" y="320" width="140" height="70" as="geometry" />
        </mxCell>
        <mxCell id="vbK594EZxYFQ8bA3J1nK-5" value="Menghapus Buku" style="ellipse;whiteSpace=wrap;html=1;" vertex="1" parent="1">
          <mxGeometry x="300" y="420" width="140" height="70" as="geometry" />
        </mxCell>
        <mxCell id="vbK594EZxYFQ8bA3J1nK-6" value="Memperbarui Informasi Buku" style="ellipse;whiteSpace=wrap;html=1;" vertex="1" parent="1">
          <mxGeometry x="300" y="530" width="140" height="70" as="geometry" />
        </mxCell>
        <mxCell id="vbK594EZxYFQ8bA3J1nK-7" value="Melihat Daftar Peminjaman" style="ellipse;whiteSpace=wrap;html=1;" vertex="1" parent="1">
          <mxGeometry x="300" y="640" width="140" height="70" as="geometry" />
        </mxCell>
        <mxCell id="vbK594EZxYFQ8bA3J1nK-8" value="Memproses Pengembalian Buku" style="ellipse;whiteSpace=wrap;html=1;" vertex="1" parent="1">
          <mxGeometry x="300" y="740" width="140" height="70" as="geometry" />
        </mxCell>
        <mxCell id="vbK594EZxYFQ8bA3J1nK-10" style="edgeStyle=orthogonalEdgeStyle;rounded=0;orthogonalLoop=1;jettySize=auto;html=1;exitX=0.5;exitY=1;exitDx=0;exitDy=0;" edge="1" parent="1" source="vbK594EZxYFQ8bA3J1nK-5" target="vbK594EZxYFQ8bA3J1nK-5">
          <mxGeometry relative="1" as="geometry" />
        </mxCell>
      </root>
    </mxGraphModel>
  </diagram>
</mxfile>
